<svg width="24" height="24" viewBox="0 0 24 24" fill="none" xmlns="http://www.w3.org/2000/svg">
<path d="M19.0948 5.25625C17.8649 4.66937 16.5498 4.24286 15.175 4C15.0061 4.31134 14.8088 4.7301 14.6728 5.06322C13.2113 4.83906 11.7632 4.83906 10.3286 5.06322C10.1926 4.7301 9.99086 4.31134 9.82049 4C8.44414 4.24286 7.12756 4.67094 5.89765 5.25935C3.41693 9.08252 2.74444 12.8107 3.08068 16.486C4.72603 17.7391 6.32057 18.5003 7.88821 18.9985C8.27526 18.4552 8.62046 17.8777 8.91785 17.269C8.35147 17.0495 7.809 16.7787 7.29643 16.4642C7.43242 16.3615 7.56543 16.254 7.69393 16.1435C10.8202 17.6348 14.217 17.6348 17.306 16.1435C17.436 16.254 17.569 16.3615 17.7035 16.4642C17.1894 16.7802 16.6455 17.0511 16.0791 17.2706C16.3765 17.8777 16.7202 18.4567 17.1087 19C18.6779 18.5019 20.2739 17.7407 21.9192 16.486C22.3138 12.2254 21.2453 8.53146 19.0948 5.25625ZM9.34376 14.2257C8.40528 14.2257 7.63565 13.3322 7.63565 12.2441C7.63565 11.156 8.38884 10.2609 9.34376 10.2609C10.2987 10.2609 11.0683 11.1544 11.0519 12.2441C11.0534 13.3322 10.2987 14.2257 9.34376 14.2257ZM15.6562 14.2257C14.7177 14.2257 13.9481 13.3322 13.9481 12.2441C13.9481 11.156 14.7012 10.2609 15.6562 10.2609C16.6111 10.2609 17.3807 11.1544 17.3643 12.2441C17.3643 13.3322 16.6111 14.2257 15.6562 14.2257Z" fill="#B3B8C2"/>
</svg>
