<svg width="24" height="24" viewBox="0 0 24 24" fill="none" xmlns="http://www.w3.org/2000/svg">
<path d="M12.3162 4C16.5829 4 20.0496 7.59927 20.0496 11.8701C20.0496 16.1409 16.5858 19.7363 12.3152 19.7363L4.45001 19.7441V11.7344C4.45026 7.46232 8.0434 4.00011 12.3162 4ZM12.3924 6.99414C10.7032 6.99522 9.13937 7.8846 8.27521 9.33594C7.41103 10.7873 7.37363 12.5867 8.17755 14.0723L7.31036 16.8623L10.4256 16.1592C11.0774 16.4532 11.7869 16.5977 12.5018 16.582C13.2167 16.5664 13.9191 16.3906 14.5574 16.0684C15.1959 15.746 15.7551 15.2848 16.1922 14.7188C16.6292 14.1528 16.9334 13.4959 17.0838 12.7969C17.2342 12.0976 17.227 11.3735 17.0613 10.6777C16.8957 9.98198 16.5762 9.33178 16.1268 8.77539C15.6774 8.21911 15.1089 7.7702 14.4637 7.46191C13.8185 7.15369 13.1123 6.99419 12.3973 6.99414H12.3924Z" fill="#B3B8C2"/>
</svg>
