<svg width="19" height="15" viewBox="0 0 19 15" fill="none" xmlns="http://www.w3.org/2000/svg">
<path d="M0.75 13.25V0.75H5.75C6.63405 0.75 7.4819 1.10119 8.10702 1.72631C8.73214 2.35143 9.08333 3.19928 9.08333 4.08333V14.9167C9.08333 14.4746 8.90774 14.0507 8.59518 13.7382C8.28262 13.4256 7.85869 13.25 7.41667 13.25H0.75Z" stroke="black" stroke-width="1.5"/>
<path d="M17.4167 13.25H10.75C10.308 13.25 9.88405 13.4256 9.57149 13.7382C9.25893 14.0507 9.08333 14.4746 9.08333 14.9167V4.08333C9.08333 3.19928 9.43452 2.35143 10.0596 1.72631C10.6848 1.10119 11.5326 0.75 12.4167 0.75H17.4167V13.25Z" stroke="black" stroke-width="1.5"/>
</svg>
